<?xml version="1.0" standalone="no"?>
<!DOCTYPE svg PUBLIC "-//W3C//DTD SVG 20010904//EN"
 "http://www.w3.org/TR/2001/REC-SVG-20010904/DTD/svg10.dtd">
<svg version="1.0" xmlns="http://www.w3.org/2000/svg"
 width="500.000000pt" height="123.000000pt" viewBox="0 0 500.000000 123.000000"
 preserveAspectRatio="xMidYMid meet">

<g transform="translate(0.000000,123.000000) scale(0.100000,-0.100000)"
fill="#000000" stroke="none">
<path d="M3885 801 c-38 -16 -60 -50 -59 -92 2 -62 22 -77 135 -103 35 -8 43
-32 19 -56 -25 -25 -65 -25 -112 -1 -36 18 -36 18 -42 -3 -10 -36 -7 -43 25
-56 41 -18 107 -18 147 -1 36 15 62 55 62 96 0 31 -49 85 -77 85 -10 0 -35 5
-56 11 -33 9 -38 14 -35 37 2 22 9 28 36 30 18 2 46 -4 64 -12 40 -20 38 -21
38 18 0 29 -4 36 -31 45 -37 13 -85 13 -114 2z"/>
<path d="M1537 783 c-3 -10 -28 -82 -56 -160 l-50 -143 34 0 c30 0 35 4 45 35
l12 36 56 -3 c54 -3 57 -4 66 -35 8 -29 13 -33 42 -33 19 0 34 4 34 8 0 8 -75
219 -101 285 -9 22 -18 27 -44 27 -23 0 -34 -5 -38 -17z m67 -150 c7 -21 4
-23 -28 -23 -20 0 -36 1 -36 3 0 2 8 26 17 53 l17 49 12 -30 c6 -17 15 -40 18
-52z"/>
<path d="M1890 640 l0 -160 75 0 75 0 0 30 c0 28 -2 30 -40 30 l-40 0 0 130 0
130 -35 0 -35 0 0 -160z"/>
<path d="M2220 640 l0 -160 75 0 75 0 0 30 c0 28 -2 30 -40 30 l-40 0 0 130 0
130 -35 0 -35 0 0 -160z"/>
<path d="M2552 671 c3 -121 5 -131 27 -155 52 -55 141 -55 192 0 22 24 24 34
27 155 l4 129 -30 0 -30 0 -4 -114 c-2 -95 -6 -117 -22 -135 -23 -25 -44 -27
-74 -5 -21 14 -22 22 -22 135 l0 119 -36 0 -36 0 4 -129z"/>
<path d="M3033 723 c38 -72 39 -78 26 -102 -8 -14 -30 -52 -48 -83 l-32 -58
38 0 c37 1 39 3 64 58 l26 57 29 -57 c27 -55 30 -58 65 -58 l38 0 -45 84 -45
85 32 58 c18 32 39 66 47 76 14 16 12 17 -24 17 -38 0 -41 -3 -65 -51 l-25
-51 -24 51 c-22 48 -26 51 -60 51 l-37 0 40 -77z"/>
<path d="M3392 793 c2 -5 25 -50 51 -100 41 -80 47 -101 47 -153 l0 -60 35 0
35 0 0 58 c0 50 7 74 50 160 l49 102 -35 0 c-33 0 -36 -3 -66 -66 l-31 -67
-34 67 c-32 63 -35 66 -69 66 -20 0 -34 -3 -32 -7z"/>
</g>
</svg>
